<?xml version="1.0" encoding="UTF-8" standalone="no"?>
<svg
   xmlns:dc="http://purl.org/dc/elements/1.1/"
   xmlns:cc="http://creativecommons.org/ns#"
   xmlns:rdf="http://www.w3.org/1999/02/22-rdf-syntax-ns#"
   xmlns:svg="http://www.w3.org/2000/svg"
   xmlns="http://www.w3.org/2000/svg"
   xmlns:sodipodi="http://sodipodi.sourceforge.net/DTD/sodipodi-0.dtd"
   xmlns:inkscape="http://www.inkscape.org/namespaces/inkscape"
   width="326.35175mm"
   height="208.95113mm"
   viewBox="0 0 1233.4555 789.73656"
   version="1.1"
   xml:space="preserve"
   style="clip-rule:evenodd;fill-rule:evenodd;stroke-linecap:round;stroke-linejoin:round;stroke-miterlimit:10"
   id="svg257"
   sodipodi:docname="T4_1_LaserCutCase6_35Jk_coqaulores.svg"
   inkscape:version="1.0.2-2 (e86c870879, 2021-01-15)"><metadata
   id="metadata263"><rdf:RDF><cc:Work
       rdf:about=""><dc:format>image/svg+xml</dc:format><dc:type
         rdf:resource="http://purl.org/dc/dcmitype/StillImage" /><dc:title></dc:title></cc:Work></rdf:RDF></metadata><defs
   id="defs261" /><sodipodi:namedview
   pagecolor="#ffffff"
   bordercolor="#666666"
   borderopacity="1"
   objecttolerance="10"
   gridtolerance="10"
   guidetolerance="10"
   inkscape:pageopacity="0"
   inkscape:pageshadow="2"
   inkscape:window-width="1920"
   inkscape:window-height="1177"
   id="namedview259"
   showgrid="false"
   units="mm"
   inkscape:document-units="mm"
   fit-margin-top="0"
   fit-margin-left="0"
   fit-margin-right="0"
   fit-margin-bottom="0"
   inkscape:zoom="0.82090762"
   inkscape:cx="443.41161"
   inkscape:cy="394.99661"
   inkscape:window-x="-8"
   inkscape:window-y="-8"
   inkscape:window-maximized="1"
   inkscape:current-layer="svg257" />
    <g
   transform="matrix(1.33333,0,0,1.33333,-1.3308367e-4,-0.00339207)"
   id="g255">
        <g
   id="LaserCutSides"
   transform="matrix(1.33333,0,0,-1.33333,-13.408,617.625)">
            <g
   id="front"
   transform="translate(0.00229347,1.49085)"
   style="display:inline">
                <g
   id="path70"
   transform="translate(703.501,19.9981)">
                    <path
   d="m 0,0 c 0,-1.174 -0.952,-2.125 -2.125,-2.125 h -688.82 c -1.174,0 -2.125,0.951 -2.125,2.125 v 62.291 c 0,1.175 0.951,2.126 2.125,2.126 H -2.125 C -0.952,64.417 0,63.466 0,62.291 Z"
   style="fill:none;fill-rule:nonzero;stroke:#ff0000;stroke-width:0.75px"
   id="path2" />
                </g>
                <g
   id="path126"
   transform="translate(218.643,50.4961)">
                    <path
   d="m 0,0 c 0,-1.996 -1.618,-3.614 -3.614,-3.614 -1.997,0 -3.614,1.618 -3.614,3.614 0,1.996 1.617,3.614 3.614,3.614 C -1.618,3.614 0,1.996 0,0 Z"
   style="fill:none;fill-rule:nonzero;stroke:#ff0000;stroke-width:0.75px;stroke-linecap:butt;stroke-linejoin:miter"
   id="path5" />
                </g>
                <g
   id="path130"
   transform="translate(547.52,50.4961)">
                    <path
   d="m 0,0 c 0,-1.996 -1.618,-3.614 -3.614,-3.614 -1.997,0 -3.614,1.618 -3.614,3.614 0,1.996 1.617,3.614 3.614,3.614 C -1.618,3.614 0,1.996 0,0 Z"
   style="fill:none;fill-rule:nonzero;stroke:#ff0000;stroke-width:0.75px;stroke-linecap:butt;stroke-linejoin:miter"
   id="path8" />
                </g>
            </g>
            <g
   id="bottom"
   transform="translate(-3.15291e-5,0.74085)">
                <g
   id="path14"
   transform="translate(14.7623,395.559)">
                    <path
   d="m 684.411,-310.393 0.375,0.017 0.379,0.049 0.368,0.084 0.358,0.117 0.353,0.148 0.335,0.179 0.314,0.208 0.302,0.234 0.28,0.263 0.254,0.285 0.231,0.306 0.203,0.326 0.171,0.343 0.148,0.358 0.111,0.369 0.082,0.377 0.05,0.384 0.016,0.387 V -4.432 l -0.016,0.384 -0.05,0.382 -0.082,0.377 -0.111,0.372 -0.148,0.355 -0.171,0.344 -0.203,0.326 -0.231,0.31 -0.254,0.282 -0.28,0.264 -0.302,0.237 -0.314,0.208 -0.335,0.175 -0.353,0.151 -0.358,0.113 -0.368,0.085 -0.379,0.051 L 684.411,0 M 0,0 -0.377,-0.016 -0.752,-0.067 -1.12,-0.152 -1.481,-0.265 -1.831,-0.416 -2.166,-0.591 -2.485,-0.799 -2.784,-1.036 -3.063,-1.3 l -0.256,-0.282 -0.228,-0.31 -0.204,-0.326 -0.174,-0.344 -0.146,-0.355 -0.113,-0.372 -0.081,-0.377 -0.05,-0.382 -0.016,-0.384 v -301.527 l 0.016,-0.387 0.05,-0.384 0.081,-0.377 0.113,-0.369 0.146,-0.358 0.174,-0.343 0.204,-0.326 0.228,-0.306 0.256,-0.285 0.279,-0.263 0.299,-0.234 0.319,-0.208 0.335,-0.179 0.35,-0.148 0.361,-0.117 0.368,-0.084 0.375,-0.049 0.377,-0.017"
   style="fill:none;fill-rule:nonzero;stroke:#ff0000;stroke-width:0.75px"
   id="path12" />
                </g>
                <g
   id="path26"
   transform="translate(681.031,232.92)">
                    <path
   d="m 0,0 c 0,1.876 -1.525,3.401 -3.401,3.401 -1.877,0 -3.401,-1.525 -3.401,-3.401 0,-1.878 1.524,-3.402 3.401,-3.402 C -1.525,-3.402 0,-1.878 0,0 Z"
   style="fill:none;fill-rule:nonzero;stroke:#ff0000;stroke-width:0.75px"
   id="path15" />
                </g>
                <g
   id="path30"
   transform="translate(39.2044,233.133)">
                    <path
   d="M 0,0 C 0,1.88 -1.528,3.407 -3.407,3.407 -5.293,3.407 -6.815,1.88 -6.815,0 c 0,-1.881 1.522,-3.409 3.408,-3.409 C -1.528,-3.409 0,-1.881 0,0 Z"
   style="fill:none;fill-rule:nonzero;stroke:#ff0000;stroke-width:0.75px"
   id="path18" />
                </g>
                <g
   id="path34"
   transform="translate(547.307,110.676)">
                    <path
   d="m 0,0 c 0,1.878 -1.525,3.401 -3.401,3.401 -1.878,0 -3.401,-1.523 -3.401,-3.401 0,-1.876 1.523,-3.401 3.401,-3.401 C -1.525,-3.401 0,-1.876 0,0 Z"
   style="fill:none;fill-rule:nonzero;stroke:#ff0000;stroke-width:0.75px"
   id="path21" />
                </g>
                <g
   id="path38"
   transform="translate(492.456,369.833)">
                    <path
   d="m 0,0 c 0,1.876 -1.523,3.401 -3.401,3.401 -1.877,0 -3.401,-1.525 -3.401,-3.401 0,-1.877 1.524,-3.401 3.401,-3.401 C -1.523,-3.401 0,-1.877 0,0 Z"
   style="fill:none;fill-rule:nonzero;stroke:#ff0000;stroke-width:0.75px"
   id="path24" />
                </g>
                <g
   id="path42"
   transform="translate(218.419,110.038)">
                    <path
   d="m 0,0 c 0,1.876 -1.528,3.401 -3.402,3.401 -1.879,0 -3.402,-1.525 -3.402,-3.401 0,-1.878 1.523,-3.401 3.402,-3.401 C -1.528,-3.401 0,-1.878 0,0 Z"
   style="fill:none;fill-rule:nonzero;stroke:#ff0000;stroke-width:0.75px"
   id="path27" />
                </g>
                <g
   id="path46"
   transform="translate(219.694,369.833)">
                    <path
   d="m 0,0 c 0,1.876 -1.528,3.401 -3.402,3.401 -1.879,0 -3.402,-1.525 -3.402,-3.401 0,-1.877 1.523,-3.401 3.402,-3.401 C -1.528,-3.401 0,-1.877 0,0 Z"
   style="fill:none;fill-rule:nonzero;stroke:#ff0000;stroke-width:0.75px"
   id="path31" />
                </g>
                <g
   id="path50"
   transform="translate(344.063,233.133)">
                    <path
   d="m 0,0 c 0,1.876 -1.525,3.401 -3.401,3.401 -1.878,0 -3.401,-1.525 -3.401,-3.401 0,-1.877 1.523,-3.402 3.401,-3.402 C -1.525,-3.402 0,-1.877 0,0 Z"
   style="fill:none;fill-rule:nonzero;stroke:#ff0000;stroke-width:0.75px"
   id="path35" />
                </g>
                <g
   id="path54"
   transform="translate(22.3389,333.938)">
                    <path
   d="m 0,0 c 0,-1.879 -1.523,-3.402 -3.401,-3.402 -1.879,0 -3.402,1.523 -3.402,3.402 0,1.879 1.523,3.401 3.402,3.401 C -1.523,3.401 0,1.879 0,0 Z"
   style="fill:none;fill-rule:nonzero;stroke:#ff0000;stroke-width:0.75px;stroke-linecap:butt;stroke-linejoin:miter"
   id="path39" />
                </g>
                <g
   id="path58"
   transform="translate(22.3392,147.032)">
                    <path
   d="m 0,0 c 0,-1.879 -1.523,-3.402 -3.401,-3.402 -1.879,0 -3.402,1.523 -3.402,3.402 0,1.879 1.523,3.401 3.402,3.401 C -1.523,3.401 0,1.879 0,0 Z"
   style="fill:none;fill-rule:nonzero;stroke:#ff0000;stroke-width:0.75px;stroke-linecap:butt;stroke-linejoin:miter"
   id="path43" />
                </g>
                <g
   id="path62"
   transform="translate(698.402,333.938)">
                    <path
   d="m 0,0 c 0,-1.879 -1.522,-3.402 -3.401,-3.402 -1.879,0 -3.402,1.523 -3.402,3.402 0,1.879 1.523,3.401 3.402,3.401 C -1.522,3.401 0,1.879 0,0 Z"
   style="fill:none;fill-rule:nonzero;stroke:#ff0000;stroke-width:0.75px;stroke-linecap:butt;stroke-linejoin:miter"
   id="path47" />
                </g>
                <g
   id="path66"
   transform="translate(698.402,147.032)">
                    <path
   d="m 0,0 c 0,-1.879 -1.523,-3.402 -3.401,-3.402 -1.88,0 -3.402,1.523 -3.402,3.402 0,1.879 1.522,3.401 3.402,3.401 C -1.523,3.401 0,1.879 0,0 Z"
   style="fill:none;fill-rule:nonzero;stroke:#ff0000;stroke-width:0.75px;stroke-linecap:butt;stroke-linejoin:miter"
   id="path51" />
                </g>
                <g
   id="path154"
   transform="translate(545.839,291.599)">
                    <path
   d="m 0,0 c 0,-1.174 -0.952,-2.125 -2.126,-2.125 h -2.55 c -1.175,0 -2.126,0.951 -2.126,2.125 v 2.551 c 0,1.174 0.951,2.126 2.126,2.126 h 2.55 C -0.952,4.677 0,3.725 0,2.551 Z"
   style="fill:none;fill-rule:nonzero;stroke:#ff0000;stroke-width:0.75px"
   id="path55" />
                </g>
            </g>
            <g
   id="back"
   style="display:inline">
                <g
   id="path74"
   transform="translate(10.4311,398.426)">
                    <path
   d="m 0,0 c 0,-1.174 0.952,-2.126 2.126,-2.126 h 688.819 c 1.174,0 2.125,0.952 2.125,2.126 v 62.291 c 0,1.175 -0.951,2.126 -2.125,2.126 H 2.126 C 0.952,64.417 0,63.466 0,62.291 Z"
   style="fill:none;fill-rule:nonzero;stroke:#ff0000;stroke-width:0.75px"
   id="path59" />
                </g>
                <g
   id="path82"
   transform="translate(432.174,416.626)">
                    <path
   d="m 0,0 c 0,-1.174 0.953,-2.126 2.126,-2.126 h 25.513 c 1.173,0 2.126,0.952 2.126,2.126 v 23.386 c 0,1.174 -0.953,2.126 -2.126,2.126 H 2.126 C 0.953,25.512 0,24.56 0,23.386 Z"
   style="fill:none;fill-rule:nonzero;stroke:#ff0000;stroke-width:0.7px;stroke-linecap:butt;stroke-linejoin:miter"
   id="path63" />
                </g>
                <g
   id="path86"
   transform="translate(370.862,416.988)">
                    <path
   d="M 0,0 C 0,-1.174 0.953,-2.126 2.126,-2.126 H 31.89 c 1.174,0 2.126,0.952 2.126,2.126 v 17.008 c 0,1.174 -0.952,2.126 -2.126,2.126 H 2.126 C 0.953,19.134 0,18.182 0,17.008 Z"
   style="fill:none;fill-rule:nonzero;stroke:#ff0000;stroke-width:0.7px;stroke-linecap:butt;stroke-linejoin:miter"
   id="path67" />
                </g>
                <g
   id="path90"
   transform="translate(262.455,437.736)">
                    <path
   d="m 0,0 c 0,-9.1 7.377,-16.477 16.477,-16.477 9.1,0 16.477,7.377 16.477,16.477 0,9.1 -7.377,16.477 -16.477,16.477 C 7.377,16.477 0,9.1 0,0 Z"
   style="fill:none;fill-rule:nonzero;stroke:#ff0000;stroke-width:0.73px;stroke-linecap:butt;stroke-linejoin:miter"
   id="path71" />
                </g>
                <g
   id="path98"
   transform="translate(212.334,428.906)">
                    <path
   d="M 0,0 C 0,-1.996 1.618,-3.614 3.614,-3.614 5.61,-3.614 7.229,-1.996 7.229,0 7.229,1.996 5.61,3.614 3.614,3.614 1.618,3.614 0,1.996 0,0 Z"
   style="fill:none;fill-rule:nonzero;stroke:#ff0000;stroke-width:0.75px;stroke-linecap:butt;stroke-linejoin:miter"
   id="path75" />
                </g>
                <g
   id="path106"
   transform="translate(484.895,428.906)">
                    <path
   d="M 0,0 C 0,-1.996 1.619,-3.614 3.614,-3.614 5.61,-3.614 7.229,-1.996 7.229,0 7.229,1.996 5.61,3.614 3.614,3.614 1.619,3.614 0,1.996 0,0 Z"
   style="fill:none;fill-rule:nonzero;stroke:#ff0000;stroke-width:0.75px;stroke-linecap:butt;stroke-linejoin:miter"
   id="path78" />
                </g>
                <g
   id="path134"
   transform="translate(156.705,437.736)">
                    <path
   d="m 0,0 c 0,-9.1 7.377,-16.477 16.477,-16.477 9.1,0 16.477,7.377 16.477,16.477 0,9.1 -7.377,16.477 -16.477,16.477 C 7.377,16.477 0,9.1 0,0 Z"
   style="fill:none;fill-rule:nonzero;stroke:#ff0000;stroke-width:0.73px;stroke-linecap:butt;stroke-linejoin:miter"
   id="path81" />
                </g>
                <g
   id="path150"
   transform="translate(633.837,433.893)">
                    <path
   d="m 0,0 c 0,-7.045 5.71,-12.756 12.757,-12.756 7.045,0 12.755,5.711 12.755,12.756 0,7.045 -5.71,12.756 -12.755,12.756 C 5.71,12.756 0,7.045 0,0 Z"
   style="fill:none;fill-rule:nonzero;stroke:#ff0000;stroke-width:0.75px;stroke-linecap:butt;stroke-linejoin:miter"
   id="path84" />
                </g>
                <g
   transform="matrix(-1,0,0,1,409.789,408.959)"
   id="g123">
                    <g
   transform="scale(7.5)"
   id="g89">
                        <path
   d="M 0.079,-0.296 V -0.64 c 0,-0.029 0.007,-0.051 0.02,-0.066 0.013,-0.015 0.03,-0.022 0.052,-0.022 0.022,0 0.04,0.007 0.053,0.022 0.014,0.015 0.02,0.037 0.02,0.066 v 0.352 c 0,0.04 0.005,0.073 0.014,0.1 0.009,0.027 0.024,0.048 0.047,0.063 0.023,0.015 0.055,0.022 0.096,0.022 0.057,0 0.097,-0.015 0.12,-0.045 0.023,-0.03 0.035,-0.076 0.035,-0.137 V -0.64 c 0,-0.03 0.007,-0.052 0.02,-0.066 0.013,-0.015 0.03,-0.022 0.052,-0.022 0.022,0 0.039,0.007 0.053,0.022 0.013,0.014 0.02,0.036 0.02,0.066 v 0.344 c 0,0.056 -0.005,0.103 -0.016,0.14 C 0.654,-0.118 0.633,-0.085 0.603,-0.057 0.577,-0.033 0.547,-0.015 0.512,-0.004 0.478,0.007 0.437,0.012 0.391,0.012 0.336,0.012 0.289,0.006 0.249,-0.006 0.209,-0.017 0.177,-0.036 0.152,-0.061 0.127,-0.086 0.108,-0.118 0.097,-0.156 0.085,-0.195 0.079,-0.242 0.079,-0.296 Z"
   style="fill-rule:nonzero"
   id="path87" />
                    </g>
                    <g
   transform="matrix(7.5,0,0,7.5,5.69824,0)"
   id="g93">
                        <path
   d="m 0.622,-0.215 c 0,0.043 -0.011,0.082 -0.033,0.117 C 0.566,-0.064 0.534,-0.037 0.491,-0.017 0.448,0.002 0.397,0.012 0.338,0.012 0.267,0.012 0.209,-0.001 0.163,-0.028 0.131,-0.047 0.104,-0.073 0.084,-0.105 0.063,-0.137 0.053,-0.168 0.053,-0.198 c 0,-0.018 0.006,-0.033 0.019,-0.045 0.012,-0.013 0.027,-0.019 0.046,-0.019 0.015,0 0.028,0.005 0.039,0.014 0.011,0.01 0.02,0.025 0.027,0.044 0.009,0.023 0.019,0.042 0.03,0.057 0.01,0.015 0.025,0.028 0.044,0.038 0.02,0.01 0.045,0.015 0.076,0.015 0.043,0 0.078,-0.01 0.105,-0.03 0.027,-0.02 0.04,-0.045 0.04,-0.075 0,-0.024 -0.007,-0.043 -0.022,-0.058 C 0.443,-0.272 0.424,-0.283 0.401,-0.291 0.378,-0.299 0.347,-0.307 0.309,-0.316 0.258,-0.328 0.215,-0.342 0.18,-0.358 0.145,-0.374 0.118,-0.396 0.097,-0.424 c -0.02,-0.028 -0.03,-0.062 -0.03,-0.104 0,-0.039 0.011,-0.074 0.032,-0.105 0.022,-0.03 0.053,-0.054 0.093,-0.07 0.041,-0.017 0.089,-0.025 0.144,-0.025 0.044,0 0.082,0.005 0.114,0.016 0.032,0.011 0.059,0.026 0.08,0.044 0.021,0.018 0.036,0.037 0.046,0.057 0.01,0.02 0.015,0.039 0.015,0.058 0,0.017 -0.006,0.033 -0.018,0.046 C 0.56,-0.493 0.545,-0.486 0.527,-0.486 0.51,-0.486 0.498,-0.49 0.489,-0.498 0.48,-0.507 0.471,-0.52 0.461,-0.539 0.448,-0.566 0.432,-0.587 0.414,-0.602 0.396,-0.617 0.367,-0.625 0.326,-0.625 c -0.037,0 -0.067,0.008 -0.09,0.025 -0.023,0.016 -0.035,0.036 -0.035,0.059 0,0.014 0.004,0.027 0.012,0.037 0.008,0.011 0.018,0.019 0.032,0.027 0.014,0.007 0.028,0.013 0.042,0.018 0.014,0.004 0.037,0.01 0.069,0.018 0.04,0.01 0.077,0.02 0.11,0.031 0.032,0.012 0.06,0.026 0.083,0.042 0.023,0.016 0.041,0.037 0.054,0.062 0.013,0.025 0.019,0.055 0.019,0.091 z"
   style="fill-rule:nonzero"
   id="path91" />
                    </g>
                    <g
   transform="matrix(7.5,0,0,7.5,10.7007,0)"
   id="g97">
                        <path
   d="M 0.384,0 H 0.165 C 0.133,0 0.111,-0.007 0.097,-0.021 0.084,-0.035 0.077,-0.058 0.077,-0.089 v -0.538 c 0,-0.032 0.007,-0.054 0.021,-0.068 0.014,-0.014 0.036,-0.021 0.067,-0.021 h 0.232 c 0.034,0 0.064,0.002 0.089,0.007 0.025,0.004 0.047,0.012 0.067,0.024 0.017,0.01 0.032,0.023 0.045,0.038 0.013,0.016 0.023,0.033 0.03,0.052 0.007,0.018 0.01,0.038 0.01,0.059 0,0.071 -0.036,0.124 -0.107,0.157 0.094,0.03 0.141,0.088 0.141,0.175 0,0.04 -0.01,0.076 -0.031,0.108 C 0.621,-0.064 0.593,-0.04 0.558,-0.025 0.536,-0.016 0.511,-0.009 0.483,-0.006 0.455,-0.002 0.422,0 0.384,0 Z M 0.373,-0.318 H 0.222 v 0.209 h 0.156 c 0.098,0 0.147,-0.035 0.147,-0.106 0,-0.036 -0.013,-0.062 -0.038,-0.078 C 0.461,-0.31 0.424,-0.318 0.373,-0.318 Z M 0.222,-0.607 v 0.185 h 0.133 c 0.036,0 0.064,-0.003 0.084,-0.01 0.019,-0.007 0.034,-0.02 0.045,-0.039 0.008,-0.014 0.012,-0.029 0.012,-0.046 0,-0.036 -0.013,-0.06 -0.038,-0.072 C 0.432,-0.601 0.393,-0.607 0.34,-0.607 Z"
   style="fill-rule:nonzero"
   id="path95" />
                    </g>
                    <g
   transform="matrix(7.5,0,0,7.5,17.97,0)"
   id="g101">
                        <path
   d="M 0.32,-0.108 0.205,-0.564 v 0.494 c 0,0.028 -0.006,0.048 -0.018,0.062 C 0.175,0.005 0.158,0.012 0.138,0.012 0.119,0.012 0.103,0.005 0.09,-0.008 0.078,-0.022 0.072,-0.042 0.072,-0.07 v -0.566 c 0,-0.031 0.008,-0.053 0.024,-0.063 0.016,-0.011 0.038,-0.017 0.066,-0.017 h 0.045 c 0.027,0 0.047,0.003 0.059,0.008 0.012,0.004 0.021,0.013 0.027,0.026 0.006,0.013 0.013,0.033 0.02,0.062 L 0.417,-0.228 0.521,-0.62 C 0.528,-0.649 0.535,-0.669 0.541,-0.682 0.547,-0.695 0.556,-0.704 0.568,-0.708 0.58,-0.713 0.6,-0.716 0.627,-0.716 h 0.045 c 0.028,0 0.05,0.006 0.066,0.017 0.016,0.01 0.024,0.032 0.024,0.063 v 0.566 c 0,0.028 -0.006,0.048 -0.018,0.062 C 0.732,0.005 0.715,0.012 0.695,0.012 0.676,0.012 0.66,0.005 0.647,-0.008 0.635,-0.022 0.629,-0.042 0.629,-0.07 V -0.564 L 0.514,-0.108 C 0.507,-0.078 0.501,-0.057 0.496,-0.043 0.491,-0.029 0.482,-0.016 0.47,-0.005 0.457,0.007 0.439,0.012 0.417,0.012 0.4,0.012 0.386,0.009 0.374,0.001 0.362,-0.006 0.353,-0.015 0.347,-0.027 0.34,-0.038 0.335,-0.051 0.331,-0.065 0.328,-0.079 0.324,-0.093 0.32,-0.108 Z"
   style="fill-rule:nonzero"
   id="path99" />
                    </g>
                    <g
   transform="matrix(7.5,0,0,7.5,24.2175,0)"
   id="g105">
                        <path
   d="M 0.084,-0.076 V -0.64 c 0,-0.029 0.007,-0.051 0.02,-0.066 0.013,-0.015 0.031,-0.022 0.052,-0.022 0.022,0 0.039,0.007 0.053,0.022 0.013,0.014 0.02,0.036 0.02,0.066 v 0.564 c 0,0.029 -0.007,0.052 -0.02,0.066 C 0.195,0.005 0.178,0.012 0.156,0.012 0.135,0.012 0.118,0.005 0.104,-0.01 0.091,-0.025 0.084,-0.047 0.084,-0.076 Z"
   style="fill-rule:nonzero"
   id="path103" />
                    </g>
                    <g
   transform="matrix(7.5,0,0,7.5,26.5649,0)"
   id="g109">
                        <path
   d="m 0.168,-0.716 h 0.189 c 0.049,0 0.091,0.005 0.126,0.014 0.036,0.009 0.067,0.026 0.096,0.051 0.075,0.064 0.112,0.161 0.112,0.291 0,0.043 -0.004,0.082 -0.011,0.118 -0.008,0.035 -0.019,0.067 -0.035,0.096 -0.016,0.028 -0.036,0.054 -0.06,0.076 -0.019,0.017 -0.04,0.031 -0.063,0.042 -0.023,0.01 -0.047,0.017 -0.074,0.022 C 0.422,-0.002 0.393,0 0.36,0 H 0.171 C 0.145,0 0.125,-0.004 0.111,-0.012 0.098,-0.02 0.089,-0.031 0.085,-0.046 0.081,-0.06 0.079,-0.079 0.079,-0.102 v -0.525 c 0,-0.031 0.007,-0.054 0.021,-0.068 0.014,-0.014 0.037,-0.021 0.068,-0.021 z m 0.056,0.115 v 0.486 h 0.11 c 0.024,0 0.043,-0.001 0.057,-0.002 0.013,-10e-4 0.027,-0.005 0.042,-0.01 C 0.448,-0.132 0.46,-0.139 0.471,-0.149 0.52,-0.19 0.544,-0.261 0.544,-0.361 0.544,-0.431 0.533,-0.484 0.512,-0.52 0.491,-0.555 0.464,-0.577 0.433,-0.587 0.402,-0.596 0.364,-0.601 0.32,-0.601 Z"
   style="fill-rule:nonzero"
   id="path107" />
                    </g>
                    <g
   transform="matrix(7.5,0,0,7.5,32.1167,0)"
   id="g113">
                        <path
   d="M 0.084,-0.076 V -0.64 c 0,-0.029 0.007,-0.051 0.02,-0.066 0.013,-0.015 0.031,-0.022 0.052,-0.022 0.022,0 0.039,0.007 0.053,0.022 0.013,0.014 0.02,0.036 0.02,0.066 v 0.564 c 0,0.029 -0.007,0.052 -0.02,0.066 C 0.195,0.005 0.178,0.012 0.156,0.012 0.135,0.012 0.118,0.005 0.104,-0.01 0.091,-0.025 0.084,-0.047 0.084,-0.076 Z"
   style="fill-rule:nonzero"
   id="path111" />
                    </g>
                    <g
   transform="matrix(7.5,0,0,7.5,36.3391,0)"
   id="g117">
                        <path
   d="M 0.084,-0.076 V -0.64 c 0,-0.029 0.007,-0.051 0.02,-0.066 0.013,-0.015 0.031,-0.022 0.052,-0.022 0.022,0 0.039,0.007 0.053,0.022 0.013,0.014 0.02,0.036 0.02,0.066 v 0.564 c 0,0.029 -0.007,0.052 -0.02,0.066 C 0.195,0.005 0.178,0.012 0.156,0.012 0.135,0.012 0.118,0.005 0.104,-0.01 0.091,-0.025 0.084,-0.047 0.084,-0.076 Z"
   style="fill-rule:nonzero"
   id="path115" />
                    </g>
                    <g
   transform="matrix(7.5,0,0,7.5,38.6865,0)"
   id="g121">
                        <path
   d="m 0.19,-0.456 v 0.016 c 0.023,-0.031 0.049,-0.054 0.077,-0.068 0.028,-0.015 0.06,-0.022 0.096,-0.022 0.035,0 0.066,0.008 0.094,0.023 0.028,0.015 0.048,0.037 0.062,0.065 0.009,0.016 0.015,0.034 0.017,0.053 0.003,0.019 0.004,0.043 0.004,0.072 v 0.248 c 0,0.027 -0.006,0.047 -0.018,0.061 C 0.51,0.005 0.494,0.012 0.474,0.012 0.454,0.012 0.438,0.005 0.426,-0.009 0.413,-0.023 0.407,-0.043 0.407,-0.069 v -0.222 c 0,-0.044 -0.006,-0.078 -0.018,-0.101 -0.012,-0.023 -0.037,-0.035 -0.073,-0.035 -0.024,0 -0.045,0.007 -0.065,0.021 -0.02,0.015 -0.034,0.034 -0.043,0.059 -0.007,0.02 -0.01,0.057 -0.01,0.111 v 0.167 c 0,0.027 -0.006,0.047 -0.019,0.061 C 0.167,0.005 0.151,0.012 0.131,0.012 0.112,0.012 0.096,0.005 0.083,-0.009 0.071,-0.023 0.065,-0.043 0.065,-0.069 v -0.385 c 0,-0.025 0.005,-0.044 0.017,-0.057 0.011,-0.013 0.026,-0.019 0.045,-0.019 0.012,0 0.022,0.003 0.032,0.009 0.009,0.005 0.017,0.013 0.022,0.024 0.006,0.011 0.009,0.025 0.009,0.041 z"
   style="fill-rule:nonzero"
   id="path119" />
                    </g>
                </g>
                <g
   transform="matrix(-1,0,0,1,291.551,409.162)"
   id="g149">
                    <g
   transform="scale(7.5)"
   id="g127">
                        <path
   d="M 0.32,-0.108 0.205,-0.564 v 0.494 c 0,0.028 -0.006,0.048 -0.018,0.062 C 0.175,0.005 0.158,0.012 0.138,0.012 0.119,0.012 0.103,0.005 0.09,-0.008 0.078,-0.022 0.072,-0.042 0.072,-0.07 v -0.566 c 0,-0.031 0.008,-0.053 0.024,-0.063 0.016,-0.011 0.038,-0.017 0.066,-0.017 h 0.045 c 0.027,0 0.047,0.003 0.059,0.008 0.012,0.004 0.021,0.013 0.027,0.026 0.006,0.013 0.013,0.033 0.02,0.062 L 0.417,-0.228 0.521,-0.62 C 0.528,-0.649 0.535,-0.669 0.541,-0.682 0.547,-0.695 0.556,-0.704 0.568,-0.708 0.58,-0.713 0.6,-0.716 0.627,-0.716 h 0.045 c 0.028,0 0.05,0.006 0.066,0.017 0.016,0.01 0.024,0.032 0.024,0.063 v 0.566 c 0,0.028 -0.006,0.048 -0.018,0.062 C 0.732,0.005 0.715,0.012 0.695,0.012 0.676,0.012 0.66,0.005 0.647,-0.008 0.635,-0.022 0.629,-0.042 0.629,-0.07 V -0.564 L 0.514,-0.108 C 0.507,-0.078 0.501,-0.057 0.496,-0.043 0.491,-0.029 0.482,-0.016 0.47,-0.005 0.457,0.007 0.439,0.012 0.417,0.012 0.4,0.012 0.386,0.009 0.374,0.001 0.362,-0.006 0.353,-0.015 0.347,-0.027 0.34,-0.038 0.335,-0.051 0.331,-0.065 0.328,-0.079 0.324,-0.093 0.32,-0.108 Z"
   style="fill-rule:nonzero"
   id="path125" />
                    </g>
                    <g
   transform="matrix(7.5,0,0,7.5,6.24756,0)"
   id="g131">
                        <path
   d="M 0.084,-0.076 V -0.64 c 0,-0.029 0.007,-0.051 0.02,-0.066 0.013,-0.015 0.031,-0.022 0.052,-0.022 0.022,0 0.039,0.007 0.053,0.022 0.013,0.014 0.02,0.036 0.02,0.066 v 0.564 c 0,0.029 -0.007,0.052 -0.02,0.066 C 0.195,0.005 0.178,0.012 0.156,0.012 0.135,0.012 0.118,0.005 0.104,-0.01 0.091,-0.025 0.084,-0.047 0.084,-0.076 Z"
   style="fill-rule:nonzero"
   id="path129" />
                    </g>
                    <g
   transform="matrix(7.5,0,0,7.5,8.59497,0)"
   id="g135">
                        <path
   d="m 0.168,-0.716 h 0.189 c 0.049,0 0.091,0.005 0.126,0.014 0.036,0.009 0.067,0.026 0.096,0.051 0.075,0.064 0.112,0.161 0.112,0.291 0,0.043 -0.004,0.082 -0.011,0.118 -0.008,0.035 -0.019,0.067 -0.035,0.096 -0.016,0.028 -0.036,0.054 -0.06,0.076 -0.019,0.017 -0.04,0.031 -0.063,0.042 -0.023,0.01 -0.047,0.017 -0.074,0.022 C 0.422,-0.002 0.393,0 0.36,0 H 0.171 C 0.145,0 0.125,-0.004 0.111,-0.012 0.098,-0.02 0.089,-0.031 0.085,-0.046 0.081,-0.06 0.079,-0.079 0.079,-0.102 v -0.525 c 0,-0.031 0.007,-0.054 0.021,-0.068 0.014,-0.014 0.037,-0.021 0.068,-0.021 z m 0.056,0.115 v 0.486 h 0.11 c 0.024,0 0.043,-0.001 0.057,-0.002 0.013,-10e-4 0.027,-0.005 0.042,-0.01 C 0.448,-0.132 0.46,-0.139 0.471,-0.149 0.52,-0.19 0.544,-0.261 0.544,-0.361 0.544,-0.431 0.533,-0.484 0.512,-0.52 0.491,-0.555 0.464,-0.577 0.433,-0.587 0.402,-0.596 0.364,-0.601 0.32,-0.601 Z"
   style="fill-rule:nonzero"
   id="path133" />
                    </g>
                    <g
   transform="matrix(7.5,0,0,7.5,14.1467,0)"
   id="g139">
                        <path
   d="M 0.084,-0.076 V -0.64 c 0,-0.029 0.007,-0.051 0.02,-0.066 0.013,-0.015 0.031,-0.022 0.052,-0.022 0.022,0 0.039,0.007 0.053,0.022 0.013,0.014 0.02,0.036 0.02,0.066 v 0.564 c 0,0.029 -0.007,0.052 -0.02,0.066 C 0.195,0.005 0.178,0.012 0.156,0.012 0.135,0.012 0.118,0.005 0.104,-0.01 0.091,-0.025 0.084,-0.047 0.084,-0.076 Z"
   style="fill-rule:nonzero"
   id="path137" />
                    </g>
                    <g
   transform="matrix(7.5,0,0,7.5,18.3691,0)"
   id="g143">
                        <path
   d="M 0.084,-0.076 V -0.64 c 0,-0.029 0.007,-0.051 0.02,-0.066 0.013,-0.015 0.031,-0.022 0.052,-0.022 0.022,0 0.039,0.007 0.053,0.022 0.013,0.014 0.02,0.036 0.02,0.066 v 0.564 c 0,0.029 -0.007,0.052 -0.02,0.066 C 0.195,0.005 0.178,0.012 0.156,0.012 0.135,0.012 0.118,0.005 0.104,-0.01 0.091,-0.025 0.084,-0.047 0.084,-0.076 Z"
   style="fill-rule:nonzero"
   id="path141" />
                    </g>
                    <g
   transform="matrix(7.5,0,0,7.5,20.7166,0)"
   id="g147">
                        <path
   d="m 0.19,-0.456 v 0.016 c 0.023,-0.031 0.049,-0.054 0.077,-0.068 0.028,-0.015 0.06,-0.022 0.096,-0.022 0.035,0 0.066,0.008 0.094,0.023 0.028,0.015 0.048,0.037 0.062,0.065 0.009,0.016 0.015,0.034 0.017,0.053 0.003,0.019 0.004,0.043 0.004,0.072 v 0.248 c 0,0.027 -0.006,0.047 -0.018,0.061 C 0.51,0.005 0.494,0.012 0.474,0.012 0.454,0.012 0.438,0.005 0.426,-0.009 0.413,-0.023 0.407,-0.043 0.407,-0.069 v -0.222 c 0,-0.044 -0.006,-0.078 -0.018,-0.101 -0.012,-0.023 -0.037,-0.035 -0.073,-0.035 -0.024,0 -0.045,0.007 -0.065,0.021 -0.02,0.015 -0.034,0.034 -0.043,0.059 -0.007,0.02 -0.01,0.057 -0.01,0.111 v 0.167 c 0,0.027 -0.006,0.047 -0.019,0.061 C 0.167,0.005 0.151,0.012 0.131,0.012 0.112,0.012 0.096,0.005 0.083,-0.009 0.071,-0.023 0.065,-0.043 0.065,-0.069 v -0.385 c 0,-0.025 0.005,-0.044 0.017,-0.057 0.011,-0.013 0.026,-0.019 0.045,-0.019 0.012,0 0.022,0.003 0.032,0.009 0.009,0.005 0.017,0.013 0.022,0.024 0.006,0.011 0.009,0.025 0.009,0.041 z"
   style="fill-rule:nonzero"
   id="path145" />
                    </g>
                </g>
                <g
   transform="matrix(-1,0,0,1,467.156,408.959)"
   id="g183">
                    <g
   transform="scale(7.5)"
   id="g153">
                        <path
   d="M 0.079,-0.296 V -0.64 c 0,-0.029 0.007,-0.051 0.02,-0.066 0.013,-0.015 0.03,-0.022 0.052,-0.022 0.022,0 0.04,0.007 0.053,0.022 0.014,0.015 0.02,0.037 0.02,0.066 v 0.352 c 0,0.04 0.005,0.073 0.014,0.1 0.009,0.027 0.024,0.048 0.047,0.063 0.023,0.015 0.055,0.022 0.096,0.022 0.057,0 0.097,-0.015 0.12,-0.045 0.023,-0.03 0.035,-0.076 0.035,-0.137 V -0.64 c 0,-0.03 0.007,-0.052 0.02,-0.066 0.013,-0.015 0.03,-0.022 0.052,-0.022 0.022,0 0.039,0.007 0.053,0.022 0.013,0.014 0.02,0.036 0.02,0.066 v 0.344 c 0,0.056 -0.005,0.103 -0.016,0.14 C 0.654,-0.118 0.633,-0.085 0.603,-0.057 0.577,-0.033 0.547,-0.015 0.512,-0.004 0.478,0.007 0.437,0.012 0.391,0.012 0.336,0.012 0.289,0.006 0.249,-0.006 0.209,-0.017 0.177,-0.036 0.152,-0.061 0.127,-0.086 0.108,-0.118 0.097,-0.156 0.085,-0.195 0.079,-0.242 0.079,-0.296 Z"
   style="fill-rule:nonzero"
   id="path151" />
                    </g>
                    <g
   transform="matrix(7.5,0,0,7.5,5.69824,0)"
   id="g157">
                        <path
   d="m 0.622,-0.215 c 0,0.043 -0.011,0.082 -0.033,0.117 C 0.566,-0.064 0.534,-0.037 0.491,-0.017 0.448,0.002 0.397,0.012 0.338,0.012 0.267,0.012 0.209,-0.001 0.163,-0.028 0.131,-0.047 0.104,-0.073 0.084,-0.105 0.063,-0.137 0.053,-0.168 0.053,-0.198 c 0,-0.018 0.006,-0.033 0.019,-0.045 0.012,-0.013 0.027,-0.019 0.046,-0.019 0.015,0 0.028,0.005 0.039,0.014 0.011,0.01 0.02,0.025 0.027,0.044 0.009,0.023 0.019,0.042 0.03,0.057 0.01,0.015 0.025,0.028 0.044,0.038 0.02,0.01 0.045,0.015 0.076,0.015 0.043,0 0.078,-0.01 0.105,-0.03 0.027,-0.02 0.04,-0.045 0.04,-0.075 0,-0.024 -0.007,-0.043 -0.022,-0.058 C 0.443,-0.272 0.424,-0.283 0.401,-0.291 0.378,-0.299 0.347,-0.307 0.309,-0.316 0.258,-0.328 0.215,-0.342 0.18,-0.358 0.145,-0.374 0.118,-0.396 0.097,-0.424 c -0.02,-0.028 -0.03,-0.062 -0.03,-0.104 0,-0.039 0.011,-0.074 0.032,-0.105 0.022,-0.03 0.053,-0.054 0.093,-0.07 0.041,-0.017 0.089,-0.025 0.144,-0.025 0.044,0 0.082,0.005 0.114,0.016 0.032,0.011 0.059,0.026 0.08,0.044 0.021,0.018 0.036,0.037 0.046,0.057 0.01,0.02 0.015,0.039 0.015,0.058 0,0.017 -0.006,0.033 -0.018,0.046 C 0.56,-0.493 0.545,-0.486 0.527,-0.486 0.51,-0.486 0.498,-0.49 0.489,-0.498 0.48,-0.507 0.471,-0.52 0.461,-0.539 0.448,-0.566 0.432,-0.587 0.414,-0.602 0.396,-0.617 0.367,-0.625 0.326,-0.625 c -0.037,0 -0.067,0.008 -0.09,0.025 -0.023,0.016 -0.035,0.036 -0.035,0.059 0,0.014 0.004,0.027 0.012,0.037 0.008,0.011 0.018,0.019 0.032,0.027 0.014,0.007 0.028,0.013 0.042,0.018 0.014,0.004 0.037,0.01 0.069,0.018 0.04,0.01 0.077,0.02 0.11,0.031 0.032,0.012 0.06,0.026 0.083,0.042 0.023,0.016 0.041,0.037 0.054,0.062 0.013,0.025 0.019,0.055 0.019,0.091 z"
   style="fill-rule:nonzero"
   id="path155" />
                    </g>
                    <g
   transform="matrix(7.5,0,0,7.5,10.7007,0)"
   id="g161">
                        <path
   d="M 0.384,0 H 0.165 C 0.133,0 0.111,-0.007 0.097,-0.021 0.084,-0.035 0.077,-0.058 0.077,-0.089 v -0.538 c 0,-0.032 0.007,-0.054 0.021,-0.068 0.014,-0.014 0.036,-0.021 0.067,-0.021 h 0.232 c 0.034,0 0.064,0.002 0.089,0.007 0.025,0.004 0.047,0.012 0.067,0.024 0.017,0.01 0.032,0.023 0.045,0.038 0.013,0.016 0.023,0.033 0.03,0.052 0.007,0.018 0.01,0.038 0.01,0.059 0,0.071 -0.036,0.124 -0.107,0.157 0.094,0.03 0.141,0.088 0.141,0.175 0,0.04 -0.01,0.076 -0.031,0.108 C 0.621,-0.064 0.593,-0.04 0.558,-0.025 0.536,-0.016 0.511,-0.009 0.483,-0.006 0.455,-0.002 0.422,0 0.384,0 Z M 0.373,-0.318 H 0.222 v 0.209 h 0.156 c 0.098,0 0.147,-0.035 0.147,-0.106 0,-0.036 -0.013,-0.062 -0.038,-0.078 C 0.461,-0.31 0.424,-0.318 0.373,-0.318 Z M 0.222,-0.607 v 0.185 h 0.133 c 0.036,0 0.064,-0.003 0.084,-0.01 0.019,-0.007 0.034,-0.02 0.045,-0.039 0.008,-0.014 0.012,-0.029 0.012,-0.046 0,-0.036 -0.013,-0.06 -0.038,-0.072 C 0.432,-0.601 0.393,-0.607 0.34,-0.607 Z"
   style="fill-rule:nonzero"
   id="path159" />
                    </g>
                    <g
   transform="matrix(7.5,0,0,7.5,17.97,0)"
   id="g165">
                        <path
   d="M 0.356,-0.279 H 0.223 v 0.203 c 0,0.029 -0.007,0.051 -0.02,0.066 C 0.189,0.005 0.172,0.012 0.151,0.012 0.129,0.012 0.111,0.005 0.098,-0.01 0.085,-0.025 0.078,-0.047 0.078,-0.075 v -0.552 c 0,-0.032 0.007,-0.055 0.022,-0.068 0.015,-0.014 0.038,-0.021 0.07,-0.021 h 0.186 c 0.055,0 0.097,0.004 0.127,0.013 0.029,0.008 0.055,0.022 0.076,0.04 0.021,0.019 0.037,0.042 0.048,0.07 0.011,0.027 0.017,0.058 0.017,0.092 0,0.073 -0.022,0.128 -0.067,0.166 -0.045,0.037 -0.112,0.056 -0.201,0.056 z M 0.321,-0.607 H 0.223 v 0.219 h 0.098 c 0.034,0 0.063,-0.004 0.085,-0.011 C 0.429,-0.406 0.447,-0.418 0.459,-0.434 0.471,-0.45 0.477,-0.472 0.477,-0.498 0.477,-0.53 0.468,-0.555 0.449,-0.575 0.428,-0.596 0.386,-0.607 0.321,-0.607 Z"
   style="fill-rule:nonzero"
   id="path163" />
                    </g>
                    <g
   transform="matrix(7.5,0,0,7.5,22.6868,0)"
   id="g169">
                        <path
   d="m 0.568,-0.259 c 0,0.04 -0.006,0.077 -0.019,0.11 -0.012,0.034 -0.03,0.062 -0.053,0.086 C 0.472,-0.038 0.444,-0.02 0.412,-0.007 0.379,0.006 0.342,0.012 0.302,0.012 0.261,0.012 0.225,0.006 0.193,-0.007 0.161,-0.02 0.133,-0.039 0.109,-0.063 0.086,-0.087 0.068,-0.116 0.055,-0.149 0.043,-0.182 0.037,-0.219 0.037,-0.259 c 0,-0.04 0.006,-0.077 0.019,-0.111 0.012,-0.033 0.03,-0.062 0.053,-0.086 0.023,-0.023 0.051,-0.042 0.084,-0.054 0.033,-0.013 0.069,-0.02 0.109,-0.02 0.04,0 0.077,0.007 0.11,0.02 0.032,0.013 0.061,0.031 0.084,0.055 0.024,0.024 0.041,0.053 0.054,0.086 0.012,0.034 0.018,0.07 0.018,0.11 z m -0.134,0 c 0,-0.054 -0.012,-0.096 -0.036,-0.127 -0.024,-0.03 -0.056,-0.045 -0.096,-0.045 -0.026,0 -0.049,0.007 -0.069,0.02 -0.02,0.014 -0.035,0.034 -0.046,0.06 -0.011,0.026 -0.016,0.057 -0.016,0.092 0,0.035 0.005,0.065 0.016,0.092 0.01,0.026 0.025,0.045 0.045,0.059 0.02,0.014 0.043,0.021 0.07,0.021 0.04,0 0.072,-0.015 0.096,-0.046 0.024,-0.03 0.036,-0.072 0.036,-0.126 z"
   style="fill-rule:nonzero"
   id="path167" />
                    </g>
                    <g
   transform="matrix(7.5,0,0,7.5,27.2168,0)"
   id="g173">
                        <path
   d="m 0.152,-0.447 0.087,0.298 0.079,-0.277 c 0.008,-0.029 0.015,-0.049 0.019,-0.059 0.004,-0.011 0.011,-0.021 0.023,-0.03 0.011,-0.01 0.026,-0.015 0.046,-0.015 0.02,0 0.035,0.005 0.046,0.015 0.012,0.009 0.02,0.02 0.024,0.031 0.005,0.011 0.011,0.031 0.019,0.058 l 0.079,0.277 0.088,-0.298 c 0.006,-0.021 0.011,-0.037 0.014,-0.046 0.004,-0.01 0.01,-0.018 0.018,-0.026 0.009,-0.007 0.021,-0.011 0.037,-0.011 0.016,0 0.03,0.006 0.041,0.017 0.012,0.011 0.018,0.024 0.018,0.039 0,0.014 -0.005,0.034 -0.015,0.062 L 0.666,-0.093 C 0.657,-0.066 0.649,-0.046 0.644,-0.034 0.639,-0.022 0.631,-0.011 0.619,-0.002 0.608,0.007 0.593,0.012 0.573,0.012 0.553,0.012 0.537,0.007 0.526,-0.003 0.514,-0.013 0.506,-0.025 0.5,-0.04 0.494,-0.055 0.488,-0.074 0.482,-0.097 l -0.076,-0.26 -0.074,0.26 C 0.322,-0.061 0.312,-0.034 0.3,-0.015 0.289,0.003 0.269,0.012 0.24,0.012 0.226,0.012 0.213,0.009 0.203,0.004 0.193,-0.002 0.184,-0.01 0.177,-0.021 0.17,-0.031 0.164,-0.044 0.159,-0.058 0.154,-0.073 0.15,-0.084 0.147,-0.093 L 0.039,-0.412 c -0.011,-0.03 -0.016,-0.051 -0.016,-0.062 0,-0.014 0.006,-0.027 0.017,-0.039 0.011,-0.011 0.025,-0.017 0.042,-0.017 0.022,0 0.037,0.006 0.045,0.019 0.008,0.013 0.016,0.034 0.025,0.064 z"
   style="fill-rule:nonzero"
   id="path171" />
                    </g>
                    <g
   transform="matrix(7.5,0,0,7.5,33.2153,0)"
   id="g177">
                        <path
   d="M 0.441,-0.226 H 0.18 c 0.001,0.03 0.007,0.057 0.018,0.08 0.012,0.023 0.028,0.041 0.048,0.052 0.02,0.012 0.041,0.018 0.065,0.018 0.016,0 0.031,-0.002 0.044,-0.006 0.013,-0.004 0.026,-0.009 0.038,-0.017 0.012,-0.008 0.024,-0.017 0.034,-0.026 0.011,-0.009 0.024,-0.021 0.041,-0.037 0.007,-0.006 0.016,-0.009 0.029,-0.009 0.014,0 0.025,0.004 0.033,0.011 0.009,0.008 0.013,0.018 0.013,0.032 0,0.012 -0.005,0.026 -0.014,0.042 C 0.519,-0.07 0.505,-0.054 0.486,-0.039 0.467,-0.024 0.443,-0.012 0.414,-0.002 0.385,0.007 0.352,0.012 0.315,0.012 0.229,0.012 0.163,-0.012 0.115,-0.061 0.068,-0.11 0.044,-0.176 0.044,-0.26 c 0,-0.039 0.006,-0.076 0.018,-0.109 0.011,-0.034 0.028,-0.063 0.051,-0.087 0.022,-0.024 0.05,-0.043 0.083,-0.055 0.033,-0.013 0.069,-0.02 0.109,-0.02 0.052,0 0.097,0.011 0.134,0.033 0.037,0.022 0.065,0.051 0.084,0.085 0.019,0.035 0.028,0.071 0.028,0.107 0,0.033 -0.01,0.055 -0.029,0.065 -0.019,0.01 -0.046,0.015 -0.081,0.015 z M 0.18,-0.302 H 0.422 C 0.419,-0.347 0.406,-0.381 0.385,-0.404 0.364,-0.427 0.336,-0.438 0.301,-0.438 c -0.033,0 -0.061,0.011 -0.082,0.034 -0.021,0.023 -0.034,0.057 -0.039,0.102 z"
   style="fill-rule:nonzero"
   id="path175" />
                    </g>
                    <g
   transform="matrix(7.5,0,0,7.5,37.6721,0)"
   id="g181">
                        <path
   d="m 0.201,-0.18 v 0.111 c 0,0.027 -0.006,0.047 -0.019,0.061 C 0.169,0.005 0.153,0.012 0.134,0.012 0.115,0.012 0.099,0.005 0.086,-0.008 0.074,-0.022 0.068,-0.042 0.068,-0.069 V -0.44 c 0,-0.06 0.022,-0.09 0.065,-0.09 0.022,0 0.038,0.007 0.048,0.021 0.009,0.014 0.015,0.035 0.016,0.062 0.016,-0.027 0.032,-0.048 0.049,-0.062 0.017,-0.014 0.039,-0.021 0.067,-0.021 0.028,0 0.055,0.007 0.082,0.021 0.026,0.014 0.039,0.033 0.039,0.056 0,0.016 -0.006,0.03 -0.017,0.04 C 0.406,-0.402 0.394,-0.397 0.381,-0.397 0.376,-0.397 0.364,-0.4 0.345,-0.406 0.327,-0.412 0.31,-0.415 0.296,-0.415 0.276,-0.415 0.26,-0.41 0.248,-0.4 0.236,-0.389 0.226,-0.374 0.219,-0.354 0.212,-0.334 0.208,-0.31 0.205,-0.282 0.202,-0.254 0.201,-0.22 0.201,-0.18 Z"
   style="fill-rule:nonzero"
   id="path179" />
                    </g>
                </g>
                <g
   transform="matrix(-1,0,0,1,665.156,408.959)"
   id="g217">
                    <g
   transform="scale(7.5)"
   id="g187">
                        <path
   d="M 0.536,-0.081 0.502,-0.171 H 0.211 L 0.177,-0.079 C 0.163,-0.043 0.152,-0.019 0.143,-0.007 0.133,0.006 0.118,0.012 0.096,0.012 0.078,0.012 0.062,0.006 0.048,-0.008 0.034,-0.021 0.027,-0.036 0.027,-0.053 c 0,-0.01 0.001,-0.02 0.005,-0.03 0.003,-0.011 0.008,-0.025 0.016,-0.044 l 0.183,-0.465 c 0.005,-0.013 0.011,-0.029 0.019,-0.048 0.007,-0.019 0.015,-0.034 0.023,-0.047 0.008,-0.012 0.019,-0.022 0.033,-0.03 0.013,-0.007 0.03,-0.011 0.05,-0.011 0.02,0 0.037,0.004 0.05,0.011 0.014,0.008 0.025,0.018 0.033,0.03 0.009,0.012 0.016,0.025 0.021,0.039 0.006,0.014 0.013,0.032 0.022,0.055 l 0.187,0.462 c 0.015,0.035 0.022,0.061 0.022,0.077 0,0.016 -0.007,0.032 -0.021,0.045 C 0.656,0.005 0.64,0.012 0.62,0.012 0.609,0.012 0.599,0.01 0.591,0.006 0.583,0.002 0.576,-0.003 0.57,-0.01 0.565,-0.017 0.559,-0.028 0.552,-0.043 0.546,-0.057 0.541,-0.07 0.536,-0.081 Z M 0.249,-0.28 H 0.463 L 0.355,-0.575 Z"
   style="fill-rule:nonzero"
   id="path185" />
                    </g>
                    <g
   transform="matrix(7.5,0,0,7.5,5.39429,0)"
   id="g191">
                        <path
   d="M 0.415,-0.063 V -0.08 C 0.399,-0.06 0.382,-0.043 0.365,-0.029 0.347,-0.016 0.328,-0.005 0.307,0.001 0.286,0.008 0.263,0.011 0.236,0.011 0.204,0.011 0.175,0.005 0.149,-0.009 0.124,-0.022 0.104,-0.041 0.09,-0.064 0.073,-0.092 0.065,-0.133 0.065,-0.186 V -0.45 c 0,-0.027 0.006,-0.047 0.018,-0.06 0.012,-0.013 0.028,-0.02 0.048,-0.02 0.02,0 0.036,0.007 0.049,0.02 0.012,0.014 0.018,0.033 0.018,0.06 v 0.213 c 0,0.031 0.003,0.057 0.008,0.078 0.005,0.021 0.015,0.037 0.028,0.049 0.014,0.012 0.032,0.018 0.055,0.018 0.023,0 0.044,-0.006 0.064,-0.02 0.019,-0.013 0.034,-0.031 0.043,-0.052 0.007,-0.019 0.011,-0.06 0.011,-0.124 V -0.45 c 0,-0.027 0.006,-0.046 0.019,-0.06 0.012,-0.013 0.028,-0.02 0.048,-0.02 0.02,0 0.036,0.007 0.048,0.02 0.012,0.013 0.018,0.033 0.018,0.06 v 0.386 c 0,0.025 -0.006,0.044 -0.017,0.057 C 0.511,0.006 0.496,0.012 0.478,0.012 0.46,0.012 0.445,0.006 0.433,-0.008 0.421,-0.021 0.415,-0.039 0.415,-0.063 Z"
   style="fill-rule:nonzero"
   id="path189" />
                    </g>
                    <g
   transform="matrix(7.5,0,0,7.5,9.92432,0)"
   id="g195">
                        <path
   d="M 0.434,-0.064 V -0.077 C 0.416,-0.057 0.399,-0.04 0.381,-0.027 0.364,-0.014 0.345,-0.004 0.324,0.002 0.304,0.009 0.282,0.012 0.258,0.012 0.226,0.012 0.196,0.005 0.169,-0.008 0.142,-0.022 0.118,-0.041 0.099,-0.066 0.079,-0.091 0.064,-0.12 0.053,-0.154 0.043,-0.188 0.038,-0.225 0.038,-0.264 c 0,-0.083 0.02,-0.148 0.061,-0.195 0.041,-0.047 0.094,-0.07 0.161,-0.07 0.038,0 0.071,0.007 0.097,0.02 0.026,0.013 0.052,0.033 0.077,0.061 v -0.197 c 0,-0.027 0.006,-0.048 0.016,-0.062 0.011,-0.014 0.027,-0.021 0.047,-0.021 0.02,0 0.036,0.006 0.047,0.019 0.011,0.013 0.016,0.032 0.016,0.057 v 0.588 c 0,0.025 -0.006,0.044 -0.018,0.057 C 0.531,0.006 0.516,0.012 0.497,0.012 0.479,0.012 0.464,0.006 0.452,-0.008 0.44,-0.021 0.434,-0.04 0.434,-0.064 Z M 0.172,-0.26 c 0,0.036 0.005,0.067 0.017,0.093 0.011,0.025 0.026,0.044 0.046,0.057 0.019,0.013 0.041,0.019 0.064,0.019 0.023,0 0.045,-0.006 0.064,-0.018 C 0.382,-0.121 0.398,-0.14 0.409,-0.165 0.421,-0.191 0.427,-0.222 0.427,-0.26 0.427,-0.295 0.421,-0.326 0.409,-0.351 0.398,-0.377 0.382,-0.396 0.363,-0.41 0.343,-0.423 0.321,-0.43 0.298,-0.43 c -0.025,0 -0.046,0.007 -0.066,0.021 -0.019,0.013 -0.034,0.033 -0.044,0.059 -0.011,0.026 -0.016,0.056 -0.016,0.09 z"
   style="fill-rule:nonzero"
   id="path193" />
                    </g>
                    <g
   transform="matrix(7.5,0,0,7.5,14.6118,0)"
   id="g199">
                        <path
   d="m 0.202,-0.454 v 0.385 c 0,0.027 -0.006,0.047 -0.019,0.061 C 0.17,0.005 0.154,0.012 0.135,0.012 0.115,0.012 0.099,0.005 0.087,-0.009 0.075,-0.023 0.069,-0.043 0.069,-0.069 V -0.45 c 0,-0.027 0.006,-0.046 0.018,-0.06 0.012,-0.013 0.028,-0.02 0.048,-0.02 0.019,0 0.035,0.007 0.048,0.02 0.013,0.014 0.019,0.032 0.019,0.056 z M 0.136,-0.592 c -0.018,0 -0.034,-0.005 -0.047,-0.017 -0.014,-0.011 -0.02,-0.027 -0.02,-0.048 0,-0.019 0.007,-0.035 0.02,-0.047 0.014,-0.012 0.029,-0.018 0.047,-0.018 0.017,0 0.033,0.005 0.046,0.016 0.013,0.012 0.02,0.028 0.02,0.049 0,0.02 -0.006,0.036 -0.019,0.048 -0.013,0.011 -0.029,0.017 -0.047,0.017 z"
   style="fill-rule:nonzero"
   id="path197" />
                    </g>
                    <g
   transform="matrix(7.5,0,0,7.5,16.6443,0)"
   id="g203">
                        <path
   d="m 0.568,-0.259 c 0,0.04 -0.006,0.077 -0.019,0.11 -0.012,0.034 -0.03,0.062 -0.053,0.086 C 0.472,-0.038 0.444,-0.02 0.412,-0.007 0.379,0.006 0.342,0.012 0.302,0.012 0.261,0.012 0.225,0.006 0.193,-0.007 0.161,-0.02 0.133,-0.039 0.109,-0.063 0.086,-0.087 0.068,-0.116 0.055,-0.149 0.043,-0.182 0.037,-0.219 0.037,-0.259 c 0,-0.04 0.006,-0.077 0.019,-0.111 0.012,-0.033 0.03,-0.062 0.053,-0.086 0.023,-0.023 0.051,-0.042 0.084,-0.054 0.033,-0.013 0.069,-0.02 0.109,-0.02 0.04,0 0.077,0.007 0.11,0.02 0.032,0.013 0.061,0.031 0.084,0.055 0.024,0.024 0.041,0.053 0.054,0.086 0.012,0.034 0.018,0.07 0.018,0.11 z m -0.134,0 c 0,-0.054 -0.012,-0.096 -0.036,-0.127 -0.024,-0.03 -0.056,-0.045 -0.096,-0.045 -0.026,0 -0.049,0.007 -0.069,0.02 -0.02,0.014 -0.035,0.034 -0.046,0.06 -0.011,0.026 -0.016,0.057 -0.016,0.092 0,0.035 0.005,0.065 0.016,0.092 0.01,0.026 0.025,0.045 0.045,0.059 0.02,0.014 0.043,0.021 0.07,0.021 0.04,0 0.072,-0.015 0.096,-0.046 0.024,-0.03 0.036,-0.072 0.036,-0.126 z"
   style="fill-rule:nonzero"
   id="path201" />
                    </g>
                    <g
   transform="matrix(7.5,0,0,7.5,23.0493,0)"
   id="g207">
                        <path
   d="m 0.393,-0.728 c 0.074,0 0.138,0.015 0.191,0.045 0.053,0.03 0.094,0.073 0.121,0.129 0.027,0.055 0.041,0.12 0.041,0.195 0,0.055 -0.007,0.106 -0.022,0.151 C 0.709,-0.163 0.686,-0.124 0.656,-0.09 0.626,-0.057 0.59,-0.032 0.546,-0.014 0.502,0.003 0.452,0.012 0.396,0.012 0.34,0.012 0.29,0.003 0.246,-0.015 0.201,-0.033 0.164,-0.058 0.135,-0.091 0.105,-0.124 0.083,-0.164 0.068,-0.21 0.052,-0.256 0.045,-0.306 0.045,-0.36 c 0,-0.055 0.008,-0.105 0.024,-0.151 0.015,-0.046 0.038,-0.085 0.068,-0.117 0.03,-0.033 0.067,-0.057 0.11,-0.074 0.043,-0.017 0.091,-0.026 0.146,-0.026 z m 0.206,0.368 c 0,-0.052 -0.008,-0.098 -0.025,-0.136 -0.017,-0.039 -0.041,-0.068 -0.073,-0.087 -0.031,-0.02 -0.067,-0.03 -0.108,-0.03 -0.029,0 -0.056,0.006 -0.08,0.017 -0.025,0.01 -0.046,0.026 -0.064,0.047 -0.017,0.021 -0.031,0.048 -0.042,0.08 -0.01,0.032 -0.015,0.069 -0.015,0.109 0,0.041 0.005,0.078 0.015,0.11 0.011,0.033 0.025,0.061 0.044,0.082 0.018,0.022 0.04,0.038 0.064,0.049 0.024,0.011 0.051,0.016 0.08,0.016 0.037,0 0.071,-0.009 0.102,-0.028 0.031,-0.018 0.056,-0.047 0.075,-0.086 0.018,-0.039 0.027,-0.086 0.027,-0.143 z"
   style="fill-rule:nonzero"
   id="path205" />
                    </g>
                    <g
   transform="matrix(7.5,0,0,7.5,28.9893,0)"
   id="g211">
                        <path
   d="M 0.415,-0.063 V -0.08 C 0.399,-0.06 0.382,-0.043 0.365,-0.029 0.347,-0.016 0.328,-0.005 0.307,0.001 0.286,0.008 0.263,0.011 0.236,0.011 0.204,0.011 0.175,0.005 0.149,-0.009 0.124,-0.022 0.104,-0.041 0.09,-0.064 0.073,-0.092 0.065,-0.133 0.065,-0.186 V -0.45 c 0,-0.027 0.006,-0.047 0.018,-0.06 0.012,-0.013 0.028,-0.02 0.048,-0.02 0.02,0 0.036,0.007 0.049,0.02 0.012,0.014 0.018,0.033 0.018,0.06 v 0.213 c 0,0.031 0.003,0.057 0.008,0.078 0.005,0.021 0.015,0.037 0.028,0.049 0.014,0.012 0.032,0.018 0.055,0.018 0.023,0 0.044,-0.006 0.064,-0.02 0.019,-0.013 0.034,-0.031 0.043,-0.052 0.007,-0.019 0.011,-0.06 0.011,-0.124 V -0.45 c 0,-0.027 0.006,-0.046 0.019,-0.06 0.012,-0.013 0.028,-0.02 0.048,-0.02 0.02,0 0.036,0.007 0.048,0.02 0.012,0.013 0.018,0.033 0.018,0.06 v 0.386 c 0,0.025 -0.006,0.044 -0.017,0.057 C 0.511,0.006 0.496,0.012 0.478,0.012 0.46,0.012 0.445,0.006 0.433,-0.008 0.421,-0.021 0.415,-0.039 0.415,-0.063 Z"
   style="fill-rule:nonzero"
   id="path209" />
                    </g>
                    <g
   transform="matrix(7.5,0,0,7.5,33.5193,0)"
   id="g215">
                        <path
   d="m 0.076,-0.518 h 0.015 v -0.08 c 0,-0.022 0,-0.038 0.002,-0.051 0.001,-0.012 0.004,-0.022 0.009,-0.031 0.005,-0.009 0.013,-0.017 0.023,-0.022 0.009,-0.006 0.02,-0.009 0.032,-0.009 0.017,0 0.032,0.006 0.046,0.019 0.009,0.009 0.015,0.019 0.017,0.031 0.003,0.012 0.004,0.03 0.004,0.052 v 0.091 h 0.049 c 0.019,0 0.033,0.004 0.043,0.013 0.01,0.009 0.015,0.021 0.015,0.035 0,0.018 -0.007,0.03 -0.021,0.037 -0.014,0.008 -0.035,0.011 -0.061,0.011 H 0.224 v 0.245 c 0,0.021 0.001,0.037 0.002,0.048 0.002,0.012 0.006,0.021 0.012,0.028 0.006,0.007 0.017,0.01 0.031,0.01 0.008,0 0.018,-0.001 0.032,-0.004 0.013,-0.003 0.024,-0.004 0.031,-0.004 0.011,0 0.02,0.004 0.029,0.013 0.009,0.008 0.013,0.019 0.013,0.032 0,0.021 -0.012,0.038 -0.035,0.049 C 0.315,0.007 0.282,0.012 0.238,0.012 0.196,0.012 0.165,0.005 0.143,-0.009 0.122,-0.023 0.108,-0.042 0.101,-0.067 0.094,-0.092 0.091,-0.125 0.091,-0.166 V -0.422 H 0.073 c -0.019,0 -0.034,-0.004 -0.044,-0.014 -0.01,-0.009 -0.015,-0.02 -0.015,-0.034 0,-0.014 0.005,-0.026 0.016,-0.035 0.011,-0.009 0.026,-0.013 0.046,-0.013 z"
   style="fill-rule:nonzero"
   id="path213" />
                    </g>
                </g>
                <g
   transform="matrix(-1,0,0,1,192.237,409.163)"
   id="g251">
                    <g
   transform="scale(7.5)"
   id="g221">
                        <path
   d="M 0.32,-0.108 0.205,-0.564 v 0.494 c 0,0.028 -0.006,0.048 -0.018,0.062 C 0.175,0.005 0.158,0.012 0.138,0.012 0.119,0.012 0.103,0.005 0.09,-0.008 0.078,-0.022 0.072,-0.042 0.072,-0.07 v -0.566 c 0,-0.031 0.008,-0.053 0.024,-0.063 0.016,-0.011 0.038,-0.017 0.066,-0.017 h 0.045 c 0.027,0 0.047,0.003 0.059,0.008 0.012,0.004 0.021,0.013 0.027,0.026 0.006,0.013 0.013,0.033 0.02,0.062 L 0.417,-0.228 0.521,-0.62 C 0.528,-0.649 0.535,-0.669 0.541,-0.682 0.547,-0.695 0.556,-0.704 0.568,-0.708 0.58,-0.713 0.6,-0.716 0.627,-0.716 h 0.045 c 0.028,0 0.05,0.006 0.066,0.017 0.016,0.01 0.024,0.032 0.024,0.063 v 0.566 c 0,0.028 -0.006,0.048 -0.018,0.062 C 0.732,0.005 0.715,0.012 0.695,0.012 0.676,0.012 0.66,0.005 0.647,-0.008 0.635,-0.022 0.629,-0.042 0.629,-0.07 V -0.564 L 0.514,-0.108 C 0.507,-0.078 0.501,-0.057 0.496,-0.043 0.491,-0.029 0.482,-0.016 0.47,-0.005 0.457,0.007 0.439,0.012 0.417,0.012 0.4,0.012 0.386,0.009 0.374,0.001 0.362,-0.006 0.353,-0.015 0.347,-0.027 0.34,-0.038 0.335,-0.051 0.331,-0.065 0.328,-0.079 0.324,-0.093 0.32,-0.108 Z"
   style="fill-rule:nonzero"
   id="path219" />
                    </g>
                    <g
   transform="matrix(7.5,0,0,7.5,6.24756,0)"
   id="g225">
                        <path
   d="M 0.084,-0.076 V -0.64 c 0,-0.029 0.007,-0.051 0.02,-0.066 0.013,-0.015 0.031,-0.022 0.052,-0.022 0.022,0 0.039,0.007 0.053,0.022 0.013,0.014 0.02,0.036 0.02,0.066 v 0.564 c 0,0.029 -0.007,0.052 -0.02,0.066 C 0.195,0.005 0.178,0.012 0.156,0.012 0.135,0.012 0.118,0.005 0.104,-0.01 0.091,-0.025 0.084,-0.047 0.084,-0.076 Z"
   style="fill-rule:nonzero"
   id="path223" />
                    </g>
                    <g
   transform="matrix(7.5,0,0,7.5,8.59497,0)"
   id="g229">
                        <path
   d="m 0.168,-0.716 h 0.189 c 0.049,0 0.091,0.005 0.126,0.014 0.036,0.009 0.067,0.026 0.096,0.051 0.075,0.064 0.112,0.161 0.112,0.291 0,0.043 -0.004,0.082 -0.011,0.118 -0.008,0.035 -0.019,0.067 -0.035,0.096 -0.016,0.028 -0.036,0.054 -0.06,0.076 -0.019,0.017 -0.04,0.031 -0.063,0.042 -0.023,0.01 -0.047,0.017 -0.074,0.022 C 0.422,-0.002 0.393,0 0.36,0 H 0.171 C 0.145,0 0.125,-0.004 0.111,-0.012 0.098,-0.02 0.089,-0.031 0.085,-0.046 0.081,-0.06 0.079,-0.079 0.079,-0.102 v -0.525 c 0,-0.031 0.007,-0.054 0.021,-0.068 0.014,-0.014 0.037,-0.021 0.068,-0.021 z m 0.056,0.115 v 0.486 h 0.11 c 0.024,0 0.043,-0.001 0.057,-0.002 0.013,-10e-4 0.027,-0.005 0.042,-0.01 C 0.448,-0.132 0.46,-0.139 0.471,-0.149 0.52,-0.19 0.544,-0.261 0.544,-0.361 0.544,-0.431 0.533,-0.484 0.512,-0.52 0.491,-0.555 0.464,-0.577 0.433,-0.587 0.402,-0.596 0.364,-0.601 0.32,-0.601 Z"
   style="fill-rule:nonzero"
   id="path227" />
                    </g>
                    <g
   transform="matrix(7.5,0,0,7.5,14.1467,0)"
   id="g233">
                        <path
   d="M 0.084,-0.076 V -0.64 c 0,-0.029 0.007,-0.051 0.02,-0.066 0.013,-0.015 0.031,-0.022 0.052,-0.022 0.022,0 0.039,0.007 0.053,0.022 0.013,0.014 0.02,0.036 0.02,0.066 v 0.564 c 0,0.029 -0.007,0.052 -0.02,0.066 C 0.195,0.005 0.178,0.012 0.156,0.012 0.135,0.012 0.118,0.005 0.104,-0.01 0.091,-0.025 0.084,-0.047 0.084,-0.076 Z"
   style="fill-rule:nonzero"
   id="path231" />
                    </g>
                    <g
   transform="matrix(7.5,0,0,7.5,18.3691,0)"
   id="g237">
                        <path
   d="M 0.543,-0.596 H 0.385 v 0.52 c 0,0.03 -0.007,0.052 -0.02,0.066 C 0.351,0.005 0.334,0.012 0.313,0.012 0.292,0.012 0.274,0.005 0.26,-0.01 0.247,-0.024 0.24,-0.047 0.24,-0.076 v -0.52 H 0.082 c -0.025,0 -0.043,-0.006 -0.055,-0.017 -0.012,-0.01 -0.018,-0.025 -0.018,-0.043 0,-0.018 0.006,-0.033 0.019,-0.044 0.012,-0.01 0.03,-0.016 0.054,-0.016 h 0.461 c 0.025,0 0.044,0.006 0.056,0.017 0.012,0.011 0.018,0.025 0.018,0.043 0,0.018 -0.006,0.033 -0.018,0.043 -0.013,0.011 -0.031,0.017 -0.056,0.017 z"
   style="fill-rule:nonzero"
   id="path235" />
                    </g>
                    <g
   transform="matrix(7.5,0,0,7.5,22.9578,0)"
   id="g241">
                        <path
   d="m 0.199,-0.647 v 0.198 c 0.017,-0.02 0.034,-0.035 0.05,-0.047 0.016,-0.011 0.034,-0.02 0.053,-0.025 0.02,-0.006 0.041,-0.009 0.063,-0.009 0.034,0 0.064,0.007 0.09,0.022 0.027,0.014 0.047,0.035 0.062,0.062 0.01,0.016 0.016,0.034 0.019,0.054 0.003,0.019 0.005,0.042 0.005,0.068 v 0.255 c 0,0.027 -0.006,0.047 -0.018,0.061 -0.013,0.013 -0.029,0.02 -0.049,0.02 -0.044,0 -0.066,-0.027 -0.066,-0.081 v -0.225 c 0,-0.043 -0.006,-0.075 -0.019,-0.098 -0.013,-0.023 -0.037,-0.035 -0.072,-0.035 -0.024,0 -0.045,0.007 -0.064,0.021 -0.019,0.013 -0.034,0.031 -0.043,0.055 -0.007,0.02 -0.011,0.055 -0.011,0.106 v 0.176 c 0,0.027 -0.006,0.047 -0.018,0.06 C 0.17,0.005 0.153,0.012 0.132,0.012 0.088,0.012 0.066,-0.015 0.066,-0.069 v -0.578 c 0,-0.027 0.006,-0.047 0.017,-0.061 0.012,-0.013 0.028,-0.02 0.049,-0.02 0.021,0 0.038,0.007 0.049,0.02 0.012,0.014 0.018,0.034 0.018,0.061 z"
   style="fill-rule:nonzero"
   id="path239" />
                    </g>
                    <g
   transform="matrix(7.5,0,0,7.5,27.4878,0)"
   id="g245">
                        <path
   d="m 0.201,-0.18 v 0.111 c 0,0.027 -0.006,0.047 -0.019,0.061 C 0.169,0.005 0.153,0.012 0.134,0.012 0.115,0.012 0.099,0.005 0.086,-0.008 0.074,-0.022 0.068,-0.042 0.068,-0.069 V -0.44 c 0,-0.06 0.022,-0.09 0.065,-0.09 0.022,0 0.038,0.007 0.048,0.021 0.009,0.014 0.015,0.035 0.016,0.062 0.016,-0.027 0.032,-0.048 0.049,-0.062 0.017,-0.014 0.039,-0.021 0.067,-0.021 0.028,0 0.055,0.007 0.082,0.021 0.026,0.014 0.039,0.033 0.039,0.056 0,0.016 -0.006,0.03 -0.017,0.04 C 0.406,-0.402 0.394,-0.397 0.381,-0.397 0.376,-0.397 0.364,-0.4 0.345,-0.406 0.327,-0.412 0.31,-0.415 0.296,-0.415 0.276,-0.415 0.26,-0.41 0.248,-0.4 0.236,-0.389 0.226,-0.374 0.219,-0.354 0.212,-0.334 0.208,-0.31 0.205,-0.282 0.202,-0.254 0.201,-0.22 0.201,-0.18 Z"
   style="fill-rule:nonzero"
   id="path243" />
                    </g>
                    <g
   transform="matrix(7.5,0,0,7.5,30.5859,0)"
   id="g249">
                        <path
   d="M 0.415,-0.063 V -0.08 C 0.399,-0.06 0.382,-0.043 0.365,-0.029 0.347,-0.016 0.328,-0.005 0.307,0.001 0.286,0.008 0.263,0.011 0.236,0.011 0.204,0.011 0.175,0.005 0.149,-0.009 0.124,-0.022 0.104,-0.041 0.09,-0.064 0.073,-0.092 0.065,-0.133 0.065,-0.186 V -0.45 c 0,-0.027 0.006,-0.047 0.018,-0.06 0.012,-0.013 0.028,-0.02 0.048,-0.02 0.02,0 0.036,0.007 0.049,0.02 0.012,0.014 0.018,0.033 0.018,0.06 v 0.213 c 0,0.031 0.003,0.057 0.008,0.078 0.005,0.021 0.015,0.037 0.028,0.049 0.014,0.012 0.032,0.018 0.055,0.018 0.023,0 0.044,-0.006 0.064,-0.02 0.019,-0.013 0.034,-0.031 0.043,-0.052 0.007,-0.019 0.011,-0.06 0.011,-0.124 V -0.45 c 0,-0.027 0.006,-0.046 0.019,-0.06 0.012,-0.013 0.028,-0.02 0.048,-0.02 0.02,0 0.036,0.007 0.048,0.02 0.012,0.013 0.018,0.033 0.018,0.06 v 0.386 c 0,0.025 -0.006,0.044 -0.017,0.057 C 0.511,0.006 0.496,0.012 0.478,0.012 0.46,0.012 0.445,0.006 0.433,-0.008 0.421,-0.021 0.415,-0.039 0.415,-0.063 Z"
   style="fill-rule:nonzero"
   id="path247" />
                    </g>
                </g>
            </g>
        </g>
    </g>
</svg>
